Coordinates
version=1
nRows=9
nColumns=24
inDegrees=yes

Units are S.I. units (second, meters, Newtons, ...)
Angles are in degrees.

endheader
time	pelvis_tilt	pelvis_list	pelvis_rotation	pelvis_tx	pelvis_ty	pelvis_tz	hip_flexion_r	hip_adduction_r	hip_rotation_r	knee_angle_r	ankle_angle_r	subtalar_angle_r	mtp_angle_r	hip_flexion_l	hip_adduction_l	hip_rotation_l	knee_angle_l	ankle_angle_l	subtalar_angle_l	mtp_angle_l	lumbar_extension	lumbar_bending	lumbar_rotation
      1.24000000	     -4.47130262	      0.31926834	     -6.15633249	     -0.07722949	      0.93677281	      0.00162832	      6.89947955	     -3.45650831	      1.48358137	    -61.67904442	      3.71632721	      0.00000057	      0.00000000	     34.70676839	     -4.51131415	     -9.99559085	    -38.65534258	      9.72177030	      0.00000014	      0.00000000	    -11.12204298	     -6.87126399	      6.95572372
      1.25000000	     -4.67337648	      0.31775903	     -6.09438787	     -0.07816200	      0.93970733	      0.00098713	      9.31766746	     -3.23733810	      1.32602137	    -64.13759817	      3.75134864	      0.00000058	      0.00000000	     33.64409744	     -4.31905344	    -10.07409703	    -38.16372123	     10.36932787	      0.00000011	      0.00000000	    -10.98273434	     -6.83554364	      6.74314457
      1.26000000	     -4.92221125	      0.32466993	     -6.01008488	     -0.07927274	      0.94262966	      0.00023920	     11.82445688	     -3.00036816	      1.15864951	    -66.23927983	      4.22940102	      0.00000048	      0.00000000	     32.61583180	     -4.04945354	     -9.92664758	    -37.55817850	     10.90895172	      0.00000019	      0.00000000	    -10.79781079	     -6.75031146	      6.50067601
      1.27000000	     -5.20613755	      0.33964826	     -5.90282731	     -0.08045115	      0.94587202	     -0.00060262	     14.32338616	     -2.76049082	      0.96260482	    -67.78858019	      4.81496795	      0.00000053	      0.00000000	     31.44137481	     -3.69260025	     -9.75612393	    -36.59485179	     11.28174112	      0.00000012	      0.00000000	    -10.60113741	     -6.66543434	      6.26608443
      1.28000000	     -5.49153362	      0.34877087	     -5.80584681	     -0.08171143	      0.94930352	     -0.00130270	     16.78921102	     -2.49960296	      0.73679862	    -68.84232398	      5.59127976	      0.00000046	      0.00000000	     30.17076723	     -3.35918857	     -9.54777095	    -35.41358778	     11.48755837	      0.00000013	      0.00000000	    -10.42074036	     -6.58240425	      6.05898654
      1.29000000	     -5.78354849	      0.31641810	     -5.69047532	     -0.08301020	      0.95270392	     -0.00209939	     19.21498384	     -2.23891954	      0.40134332	    -69.43003632	      6.46717471	      0.00000049	      0.00000000	     28.83950719	     -3.06707238	     -9.37582420	    -34.11460949	     11.63401127	      0.00000019	      0.00000000	    -10.25341011	     -6.42999922	      5.85356921
      1.30000000	     -6.06418649	      0.28761557	     -5.58619558	     -0.08416122	      0.95609567	     -0.00291052	     21.58535371	     -2.05599621	     -0.00155357	    -69.60712985	      7.58771359	      0.00000050	      0.00000000	     27.26957077	     -2.71835589	     -9.17073666	    -32.35381785	     11.11300671	      0.00000016	      0.00000000	    -10.09081966	     -6.29096258	      5.67181301
      1.31000000	     -6.29002356	      0.14639003	     -5.33372056	     -0.08588158	      0.95918449	     -0.00390627	     23.87554010	     -1.84698245	     -0.67137178	    -69.46335142	      8.87129018	      0.00000056	      0.00000000	     25.84799547	     -2.45242209	     -8.80948140	    -30.91780969	     11.09908672	      0.00000007	      0.00000000	    -10.07823906	     -5.98977071	      5.29124358
      1.32000000	     -6.48562745	      0.04312000	     -5.15249911	     -0.08711829	      0.96211776	     -0.00476276	     25.99937560	     -1.69443990	     -1.29979874	    -68.90007398	     10.22547255	      0.00000058	      0.00000000	     24.21487214	     -2.17692371	     -8.52924687	    -29.17048529	     10.69679373	      0.00000007	      0.00000000	    -10.03119425	     -5.75292951	      5.00903348
